<svg id="svg" version="1.1" xmlns="http://www.w3.org/2000/svg" xmlns:xlink="http://www.w3.org/1999/xlink" width="400" height="400" viewBox="0, 0, 400,400"><g id="svgg"><path id="path0" d="M108.090 142.284 C 106.393 142.609,105.800 144.188,105.800 148.382 C 105.800 155.201,105.797 155.199,114.326 155.201 C 119.455 155.203,120.363 155.302,121.486 155.987 L 122.773 156.772 122.886 194.801 C 122.969 222.332,123.124 232.908,123.448 233.115 C 123.919 233.414,123.890 235.705,123.401 236.900 C 123.243 237.285,123.242 237.915,123.398 238.300 C 123.554 238.685,123.750 239.799,123.834 240.775 C 124.032 243.066,124.518 244.608,126.430 249.000 C 126.621 249.440,127.154 250.790,127.614 252.000 C 128.150 253.412,129.079 254.792,130.206 255.852 C 131.173 256.760,131.885 257.581,131.790 257.677 C 131.472 257.995,136.998 262.681,138.737 263.568 C 139.679 264.048,141.462 265.089,142.701 265.882 C 143.940 266.674,145.441 267.340,146.037 267.361 C 146.634 267.383,147.038 267.535,146.937 267.700 C 146.836 267.865,147.027 268.000,147.363 268.000 C 147.698 268.000,148.564 268.259,149.286 268.575 C 152.503 269.983,156.394 271.225,158.025 271.366 C 159.001 271.450,160.160 271.672,160.600 271.859 C 161.653 272.308,187.165 272.302,188.200 271.853 C 188.640 271.662,189.758 271.433,190.684 271.343 C 191.610 271.253,193.680 270.628,195.284 269.953 C 196.888 269.279,199.066 268.457,200.124 268.126 C 201.182 267.796,203.252 266.715,204.724 265.725 C 206.196 264.735,208.030 263.600,208.800 263.202 C 209.570 262.805,210.601 261.934,211.092 261.268 C 211.582 260.601,212.503 259.748,213.137 259.373 C 213.772 258.998,214.615 258.131,215.011 257.446 C 215.407 256.761,216.323 255.534,217.046 254.720 C 218.888 252.648,223.264 243.530,223.340 241.608 C 223.373 240.766,223.520 240.151,223.666 240.241 C 223.812 240.331,224.049 239.009,224.193 237.302 C 224.337 235.596,224.623 233.222,224.828 232.027 C 225.036 230.812,225.200 216.104,225.200 198.702 C 225.200 165.607,225.177 166.065,227.057 162.429 C 227.333 161.894,227.468 161.309,227.356 161.129 C 227.244 160.948,227.343 160.800,227.576 160.800 C 227.809 160.800,228.000 160.596,228.000 160.347 C 228.000 157.995,233.342 155.216,237.881 155.206 C 241.966 155.197,244.126 153.822,242.976 151.961 C 242.785 151.653,242.844 151.580,243.138 151.762 C 243.938 152.256,243.735 145.671,242.899 144.012 C 241.905 142.037,242.503 142.084,217.487 142.040 C 194.222 141.999,191.321 142.177,192.195 143.592 C 192.334 143.816,192.246 144.000,192.000 144.000 C 191.754 144.000,191.664 144.180,191.800 144.400 C 191.936 144.620,191.857 144.800,191.624 144.800 C 191.355 144.800,191.200 146.192,191.200 148.600 C 191.200 150.785,191.365 152.400,191.587 152.400 C 191.801 152.400,191.880 152.648,191.763 152.952 C 191.333 154.072,193.532 155.200,196.154 155.205 C 203.690 155.219,207.801 159.459,209.437 168.904 C 209.953 171.883,210.018 176.656,209.871 200.704 C 209.692 230.043,209.720 229.507,208.016 236.326 C 207.779 237.275,207.706 238.248,207.854 238.487 C 208.004 238.730,207.940 238.810,207.711 238.668 C 207.479 238.525,207.201 238.893,207.078 239.506 C 206.957 240.108,206.406 241.230,205.853 242.000 C 205.300 242.770,204.376 244.223,203.800 245.228 C 203.223 246.234,202.218 247.371,201.566 247.756 C 200.915 248.141,200.112 248.868,199.782 249.371 C 199.452 249.875,198.421 250.609,197.491 251.004 C 192.598 253.079,190.451 253.940,189.034 254.396 C 186.880 255.088,174.710 255.093,172.583 254.402 C 169.570 253.423,163.620 250.385,163.208 249.615 C 162.981 249.190,162.238 248.517,161.558 248.121 C 160.878 247.724,159.893 246.558,159.369 245.528 C 158.844 244.499,158.229 243.542,158.002 243.401 C 157.367 243.009,156.000 240.135,156.000 239.192 C 156.000 238.731,155.865 238.436,155.700 238.538 C 155.535 238.639,155.348 237.563,155.284 236.146 C 155.221 234.729,154.996 233.114,154.784 232.558 C 153.994 230.480,154.295 158.412,155.101 156.800 L 155.800 155.400 163.200 155.200 C 171.406 154.978,171.401 154.979,171.983 152.886 C 173.178 148.582,172.113 142.925,170.000 142.351 C 168.922 142.059,109.601 141.994,108.090 142.284 M321.896 171.953 C 314.992 173.088,312.109 183.939,317.549 188.311 C 321.246 191.282,323.979 191.872,327.280 190.412 C 337.949 185.692,333.390 170.063,321.896 171.953 M364.008 183.291 C 362.659 184.004,362.013 185.430,362.006 187.706 C 362.000 189.612,361.076 193.822,360.299 195.479 C 360.073 195.962,359.868 196.890,359.844 197.540 C 359.820 198.190,359.680 198.647,359.533 198.557 C 359.385 198.467,359.145 198.939,358.999 199.607 C 358.618 201.337,353.391 206.618,351.697 206.984 C 350.980 207.139,350.489 207.421,350.607 207.612 C 350.725 207.802,350.455 207.888,350.007 207.801 C 347.289 207.278,346.000 208.878,346.000 212.774 C 346.000 216.858,346.431 217.200,351.580 217.200 L 355.560 217.200 355.681 237.900 C 355.800 258.272,355.816 258.630,356.684 260.493 C 357.608 262.478,359.187 264.906,359.702 265.134 C 359.869 265.208,359.913 265.417,359.801 265.598 C 359.576 265.962,361.829 268.000,362.457 268.000 C 362.675 268.000,363.426 268.420,364.127 268.934 C 368.279 271.981,378.575 272.120,382.800 269.186 C 383.350 268.804,384.464 268.215,385.276 267.876 C 386.152 267.511,387.148 266.639,387.728 265.731 C 388.265 264.889,389.176 263.764,389.752 263.230 C 393.003 260.222,395.847 243.163,392.911 244.290 C 392.513 244.442,392.369 244.374,392.532 244.110 C 392.931 243.465,391.870 243.223,390.249 243.589 C 389.420 243.776,388.800 243.763,388.800 243.558 C 388.800 242.939,387.697 243.169,387.439 243.842 C 387.294 244.220,386.940 244.386,386.575 244.246 C 385.800 243.948,384.800 246.159,384.800 248.168 C 384.800 249.627,383.938 253.352,383.127 255.400 C 381.127 260.449,373.679 261.449,372.177 256.870 C 371.944 256.161,371.653 255.680,371.531 255.803 C 371.408 255.925,371.351 255.615,371.403 255.113 C 371.455 254.611,371.521 245.875,371.549 235.700 L 371.600 217.200 379.826 217.200 C 389.899 217.200,390.404 216.963,390.398 212.240 C 390.391 207.069,389.857 206.800,379.610 206.800 L 371.657 206.800 371.529 195.810 C 371.403 185.089,371.378 184.799,370.516 183.937 C 369.430 182.852,365.564 182.469,364.008 183.291 M241.445 206.288 C 241.286 206.447,238.575 206.672,235.420 206.788 C 228.276 207.052,228.000 207.216,228.000 211.186 C 228.000 213.012,228.198 214.091,228.630 214.624 C 228.976 215.051,229.147 215.177,229.009 214.905 C 228.844 214.579,228.970 214.491,229.377 214.646 C 229.717 214.777,229.879 215.073,229.736 215.304 C 229.590 215.539,229.667 215.606,229.911 215.455 C 230.149 215.308,230.458 215.370,230.596 215.593 C 230.734 215.817,231.967 216.000,233.335 216.000 C 235.815 216.000,237.145 216.532,238.287 217.982 C 238.656 218.449,238.778 223.595,238.787 239.046 L 238.800 259.491 237.087 260.146 C 236.144 260.506,234.479 260.802,233.387 260.805 C 229.451 260.816,228.800 261.522,228.800 265.775 C 228.800 267.676,228.991 268.548,229.565 269.256 L 230.329 270.200 246.550 270.200 C 265.673 270.200,264.200 270.588,264.200 265.550 C 264.200 261.596,263.547 260.800,260.302 260.800 C 257.446 260.800,255.369 260.089,254.841 258.930 C 254.255 257.645,254.243 234.445,254.827 231.531 C 255.721 227.064,256.454 225.186,258.002 223.397 C 258.862 222.405,259.708 221.346,259.882 221.046 C 261.535 218.204,269.315 216.941,273.075 218.904 C 275.161 219.994,278.000 223.460,278.000 224.918 C 278.000 225.267,278.180 225.664,278.400 225.800 C 278.656 225.958,278.800 232.065,278.800 242.805 L 278.800 259.562 277.300 260.011 C 276.475 260.258,274.463 260.606,272.828 260.784 C 269.129 261.187,268.800 261.566,268.800 265.432 C 268.800 267.670,268.970 268.522,269.564 269.256 L 270.329 270.200 285.354 270.318 C 304.800 270.471,304.803 270.470,304.307 264.489 C 304.062 261.528,303.197 260.807,299.856 260.781 C 298.388 260.769,296.837 260.486,296.000 260.078 L 294.600 259.394 294.367 242.197 C 294.119 223.984,294.172 224.517,291.989 218.000 C 290.000 212.061,285.491 207.785,280.063 206.689 C 277.672 206.206,269.294 206.088,267.600 206.513 C 267.050 206.651,265.920 206.871,265.089 207.002 C 264.258 207.133,263.673 207.395,263.789 207.583 C 263.906 207.771,263.686 207.848,263.301 207.752 C 262.252 207.493,256.791 210.845,254.842 212.944 C 253.672 214.204,253.200 213.985,253.200 212.184 C 253.200 210.650,252.187 207.763,251.276 206.700 C 250.651 205.970,242.120 205.613,241.445 206.288 M317.465 206.787 L 307.129 207.000 306.165 208.122 C 304.799 209.711,304.777 213.464,306.124 215.029 C 306.984 216.030,307.320 216.117,311.024 216.297 C 314.935 216.487,315.024 216.513,316.500 217.926 L 318.000 219.362 318.000 239.407 L 318.000 259.452 316.586 260.126 C 315.625 260.584,314.147 260.800,311.968 260.800 C 307.446 260.800,306.651 261.581,306.865 265.817 C 307.105 270.563,305.553 270.200,325.600 270.200 C 345.810 270.200,344.200 270.602,344.200 265.550 C 344.200 261.268,343.694 260.801,339.056 260.799 C 336.516 260.797,335.514 260.623,334.500 260.004 L 333.200 259.212 333.200 233.788 L 333.200 208.364 332.218 207.382 C 331.440 206.604,330.880 206.418,329.518 206.487 C 328.573 206.534,323.149 206.669,317.465 206.787 " stroke="none" fill="#cc0404" fill-rule="evenodd"></path><path id="path1" d="M47.338 127.752 C 46.294 128.650,46.223 128.925,46.073 132.662 C 45.776 140.059,46.265 140.394,57.338 140.398 C 65.274 140.400,66.405 140.692,67.189 142.939 C 67.768 144.603,67.752 235.344,67.171 239.979 C 66.668 243.995,66.165 245.811,65.158 247.245 C 64.754 247.820,64.538 248.405,64.678 248.545 C 64.819 248.685,64.735 248.800,64.494 248.800 C 64.252 248.800,63.927 249.199,63.772 249.687 C 63.476 250.620,59.309 255.200,58.757 255.200 C 58.580 255.200,57.572 255.703,56.518 256.318 C 51.915 259.002,43.349 259.832,38.594 258.055 C 31.321 255.336,28.073 253.037,26.196 249.278 C 24.342 245.566,25.488 244.710,30.800 245.838 C 42.828 248.393,53.500 237.136,50.623 224.930 C 46.014 205.381,21.692 200.914,10.454 217.553 C 7.725 221.594,7.168 222.749,6.929 224.874 C 6.798 226.043,6.518 227.219,6.308 227.486 C 5.703 228.254,5.468 237.103,5.980 239.800 C 6.231 241.120,6.590 243.100,6.779 244.200 C 7.521 248.527,11.791 255.453,16.356 259.730 C 17.102 260.428,18.421 261.675,19.288 262.500 C 20.156 263.325,21.079 264.000,21.340 264.000 C 21.601 264.000,22.653 264.692,23.677 265.539 C 24.701 266.385,26.138 267.300,26.870 267.571 C 27.601 267.843,29.820 268.761,31.800 269.611 C 41.161 273.632,61.966 274.249,71.798 270.797 C 78.047 268.604,82.215 266.699,83.699 265.358 C 84.526 264.611,85.473 264.000,85.803 264.000 C 86.691 264.000,95.230 255.226,95.899 253.625 C 96.215 252.869,96.889 251.699,97.396 251.025 C 98.608 249.417,99.842 246.640,100.339 244.400 C 100.559 243.410,101.145 241.160,101.641 239.400 L 102.542 236.200 102.771 190.000 C 103.045 134.641,102.076 140.402,111.119 140.398 C 119.156 140.394,119.600 140.024,119.600 133.320 C 119.600 129.414,119.056 127.537,117.782 127.048 C 117.426 126.912,101.679 126.800,82.790 126.800 L 48.445 126.800 47.338 127.752 M190.942 148.600 C 190.941 150.580,191.008 151.440,191.092 150.512 C 191.176 149.584,191.177 147.964,191.095 146.912 C 191.012 145.860,190.943 146.620,190.942 148.600 M191.200 152.938 C 191.200 153.234,191.605 153.819,192.100 154.238 L 193.000 155.000 192.261 154.125 C 191.854 153.644,191.640 153.059,191.784 152.825 C 191.929 152.591,191.857 152.400,191.624 152.400 C 191.391 152.400,191.200 152.642,191.200 152.938 M209.789 198.600 C 209.789 213.780,209.839 219.932,209.900 212.271 C 209.961 204.610,209.961 192.190,209.900 184.671 C 209.839 177.152,209.789 183.420,209.789 198.600 M345.701 212.600 C 345.705 213.480,345.787 213.793,345.883 213.295 C 345.979 212.798,345.975 212.078,345.875 211.695 C 345.775 211.313,345.696 211.720,345.701 212.600 M228.573 214.878 C 228.407 215.165,228.418 215.268,228.596 215.106 C 228.775 214.945,229.143 215.116,229.415 215.488 C 229.805 216.022,230.101 216.077,230.830 215.752 C 231.452 215.474,231.597 215.245,231.276 215.047 C 231.014 214.885,230.800 214.948,230.800 215.186 C 230.800 215.441,230.406 215.360,229.837 214.987 C 229.062 214.480,228.815 214.459,228.573 214.878 M294.093 227.600 C 294.093 228.370,294.175 228.685,294.276 228.300 C 294.376 227.915,294.376 227.285,294.276 226.900 C 294.175 226.515,294.093 226.830,294.093 227.600 M122.867 233.780 C 122.818 236.409,122.918 237.242,123.245 236.915 C 123.781 236.379,124.078 233.200,123.591 233.200 C 123.403 233.200,123.178 232.525,123.091 231.700 C 123.005 230.875,122.904 231.811,122.867 233.780 M388.628 243.328 C 388.756 243.663,389.268 243.793,390.020 243.682 C 391.840 243.415,391.851 242.800,390.036 242.800 C 388.865 242.800,388.481 242.944,388.628 243.328 M386.202 243.749 C 385.489 244.270,385.499 244.295,386.393 244.249 C 386.910 244.222,387.409 243.975,387.500 243.700 C 387.719 243.043,387.138 243.065,386.202 243.749 M391.803 243.595 C 391.658 243.830,391.837 243.884,392.245 243.727 C 392.711 243.549,392.838 243.615,392.642 243.932 C 392.483 244.189,392.533 244.400,392.753 244.400 C 393.460 244.400,393.617 243.692,392.965 243.442 C 392.139 243.125,392.090 243.131,391.803 243.595 M371.595 254.000 C 371.278 254.651,371.356 256.004,371.691 255.669 C 371.902 255.458,371.989 254.951,371.884 254.542 C 371.779 254.134,371.649 253.890,371.595 254.000 M179.705 255.087 C 180.314 255.179,181.214 255.177,181.705 255.082 C 182.197 254.987,181.700 254.911,180.600 254.914 C 179.500 254.917,179.097 254.995,179.705 255.087 " stroke="none" fill="#4c9c04" fill-rule="evenodd"></path><path id="path2" d="" stroke="none" fill="#d02804" fill-rule="evenodd"></path><path id="path3" d="" stroke="none" fill="#d02804" fill-rule="evenodd"></path><path id="path4" d="" stroke="none" fill="#d02804" fill-rule="evenodd"></path></g></svg>